<svg width="53" height="32" viewBox="0 0 53 32" fill="none" xmlns="http://www.w3.org/2000/svg">
<g clip-path="url(#clip0_8884_282837)">
<path d="M0.261255 19.8847C0.261255 16.4714 0.274225 13.0572 0.248285 9.64397C0.243653 9.08326 0.389103 8.91764 0.958863 8.92874C2.89419 8.96483 4.83137 8.9639 6.76763 8.92967C7.35406 8.91949 7.53564 9.07123 7.53194 9.68005C7.506 14.4544 7.51711 19.2287 7.51619 24.003C7.51619 24.9042 7.51341 24.9042 8.45004 24.9033C10.4345 24.9024 12.4198 24.9477 14.4024 24.8894C16.9751 24.8135 19.3264 24.1298 21.2497 22.2746C23.0053 20.5805 23.79 18.5051 23.8474 16.1254C24.0448 7.95722 29.0346 2.18732 36.4979 0.583853C41.2728 -0.442256 45.9124 0.0943928 50.1305 2.80725C50.6697 3.15422 51.1542 3.58539 51.6702 3.96844C52.038 4.24139 52.0704 4.46623 51.7045 4.81135C50.4093 6.03547 49.3967 7.47146 48.6658 9.09807C48.4443 9.59123 48.2554 9.4913 47.9367 9.16653C44.6006 5.76529 39.3643 5.48586 35.7188 7.65189C32.8811 9.33771 31.4368 11.9256 31.3053 15.2094C31.1181 19.8847 29.7322 24.0113 25.9727 27.0721C23.4806 29.1012 20.5882 30.1976 17.4244 30.6094C14.0198 31.0526 10.5957 30.7759 7.18082 30.8333C5.12598 30.8675 3.06836 30.8074 1.01352 30.8564C0.349267 30.8721 0.239021 30.6593 0.244579 30.0533C0.277005 26.6641 0.261255 23.2748 0.261255 19.8847Z" fill="white"/>
<path d="M0.24273 3.15235C0.24273 2.38809 0.263112 1.62382 0.235319 0.860488C0.215864 0.326615 0.475266 0.0980766 0.959793 0.118432C5.85694 0.321989 10.7569 0.103628 15.654 0.225762C18.9892 0.30811 22.077 1.23337 24.8702 3.08295C25.603 3.56779 25.6123 3.61128 25.0805 4.25618C23.9512 5.62371 23.0664 7.13465 22.4022 8.77791C22.115 9.48943 22.0464 9.50979 21.5128 8.95186C19.6127 6.96811 17.2067 6.15018 14.5488 6.11039C10.1028 6.0447 5.65591 6.09096 1.209 6.09467C0.248289 6.09652 0.247363 6.10577 0.246436 5.15738C0.24551 4.48934 0.246436 3.82038 0.246436 3.15235C0.244583 3.15235 0.243657 3.15235 0.24273 3.15235Z" fill="#DAB069"/>
<path d="M40.2333 31.8834C38.7492 31.9908 36.5091 31.604 34.331 30.8592C32.6532 30.2855 31.1292 29.4149 29.7312 28.3249C29.4338 28.0927 29.2819 27.8725 29.6432 27.5236C30.9467 26.2662 31.825 24.7238 32.5513 23.0852C32.6097 22.9547 32.6782 22.828 32.7347 22.6966C32.9191 22.2636 33.1137 22.1479 33.4981 22.5559C34.4866 23.6015 35.6197 24.4592 36.9778 24.9838C39.2041 25.8424 41.4683 25.9951 43.7705 25.3299C45.5566 24.8136 47.0575 23.8374 48.2887 22.4532C48.574 22.1331 48.7751 22.1248 48.9826 22.5134C49.8183 24.0835 50.8707 25.4844 52.2363 26.6372C52.7467 27.0684 52.3882 27.3848 52.0797 27.6735C50.8336 28.8393 49.4162 29.7452 47.8598 30.4456C45.6965 31.419 43.411 31.7955 40.2333 31.8834Z" fill="#DAB06A"/>
</g>
<defs>
<clipPath id="clip0_8884_282837">
<rect width="52.7273" height="32" fill="white"/>
</clipPath>
</defs>
</svg>
