<?xml version="1.0" encoding="utf-8"?>
<!-- Generator: Adobe Illustrator 27.9.0, SVG Export Plug-In . SVG Version: 6.00 Build 0)  -->
<svg version="1.1" id="Layer_1" xmlns="http://www.w3.org/2000/svg" xmlns:xlink="http://www.w3.org/1999/xlink" x="0px" y="0px"
	 viewBox="0 0 569.14 345.85" style="enable-background:new 0 0 569.14 345.85;" xml:space="preserve">
<style type="text/css">
	.st0{fill:#040404;}
	.st1{fill:#DAB069;}
	.st2{fill:#DAB06A;}
</style>
<g>
	<path class="st0" d="M2.82,214.91c0-36.89,0.14-73.79-0.14-110.68c-0.05-6.06,1.52-7.85,7.67-7.73c20.89,0.39,41.8,0.38,62.7,0.01
		c6.33-0.11,8.29,1.53,8.25,8.11c-0.28,51.6-0.16,103.2-0.17,154.8c0,9.74-0.03,9.74,10.08,9.73c21.42-0.01,42.85,0.48,64.25-0.15
		c27.77-0.82,53.15-8.21,73.91-28.26c18.95-18.31,27.42-40.74,28.04-66.46C259.54,86,313.4,23.64,393.96,6.31
		c51.54-11.09,101.62-5.29,147.15,24.03c5.82,3.75,11.05,8.41,16.62,12.55c3.97,2.95,4.32,5.38,0.37,9.11
		c-13.98,13.23-24.91,28.75-32.8,46.33c-2.39,5.33-4.43,4.25-7.87,0.74c-36.01-36.76-92.53-39.78-131.88-16.37
		c-30.63,18.22-46.22,46.19-47.64,81.68c-2.02,50.53-16.98,95.13-57.56,128.21c-26.9,21.93-58.12,33.78-92.27,38.23
		c-36.75,4.79-73.71,1.8-110.57,2.42c-22.18,0.37-44.39-0.28-66.57,0.25c-7.17,0.17-8.36-2.13-8.3-8.68
		C2.99,288.18,2.82,251.55,2.82,214.91z"/>
	<path class="st1" d="M2.62,34.07c0-8.26,0.22-16.52-0.08-24.77c-0.21-5.77,2.59-8.24,7.82-8.02c52.86,2.2,105.75-0.16,158.61,1.16
		c36,0.89,69.33,10.89,99.48,30.88c7.91,5.24,8.01,5.71,2.27,12.68c-12.19,14.78-21.74,31.11-28.91,48.87
		c-3.1,7.69-3.84,7.91-9.6,1.88c-20.51-21.44-46.48-30.28-75.17-30.71c-47.99-0.71-95.99-0.21-143.99-0.17
		C2.68,65.89,2.67,65.99,2.66,55.74c-0.01-7.22,0-14.45,0-21.67C2.64,34.07,2.63,34.07,2.62,34.07z"/>
	<path class="st2" d="M434.28,344.59c-16.02,1.16-40.2-3.02-63.71-11.07c-18.11-6.2-34.56-15.61-49.65-27.39
		c-3.21-2.51-4.85-4.89-0.95-8.66c14.07-13.59,23.55-30.26,31.39-47.97c0.63-1.41,1.37-2.78,1.98-4.2c1.99-4.68,4.09-5.93,8.24-1.52
		c10.67,11.3,22.9,20.57,37.56,26.24c24.03,9.28,48.47,10.93,73.32,3.74c19.28-5.58,35.48-16.13,48.77-31.09
		c3.08-3.46,5.25-3.55,7.49,0.65c9.02,16.97,20.38,32.11,35.12,44.57c5.51,4.66,1.64,8.08-1.69,11.2
		c-13.45,12.6-28.75,22.39-45.55,29.96C493.25,339.57,468.58,343.64,434.28,344.59z"/>
</g>
</svg>
