<?xml version="1.0" encoding="utf-8"?>
<!-- Generator: Adobe Illustrator 27.9.0, SVG Export Plug-In . SVG Version: 6.00 Build 0)  -->
<svg version="1.1" id="Layer_1" xmlns="http://www.w3.org/2000/svg" xmlns:xlink="http://www.w3.org/1999/xlink" x="0px" y="0px"
	 viewBox="0 0 629.2 348.79" style="enable-background:new 0 0 629.2 348.79;" xml:space="preserve">
<style type="text/css">
	.st0{fill:#040404;}
	.st1{fill:#DAB069;}
	.st2{fill:#DAB06A;}
	.st3{fill:#0C0C0C;}
	.st4{fill:#0D0D0D;}
	.st5{fill:#0E0E0E;}
	.st6{fill:#0A0A0A;}
	.st7{fill:#F7F7F7;}
	.st8{fill:#F6F6F6;}
	.st9{fill:#D9D9D9;}
</style>
<g>
	<path class="st0" d="M122.26,147.52c0-24.58,0.09-49.15-0.1-73.72c-0.03-4.04,1.01-5.23,5.11-5.15
		c13.92,0.26,27.85,0.25,41.76,0.01c4.22-0.07,5.52,1.02,5.5,5.4c-0.19,34.37-0.11,68.74-0.11,103.11c0,6.49-0.02,6.49,6.71,6.48
		c14.27-0.01,28.54,0.32,42.8-0.1c18.5-0.55,35.41-5.47,49.23-18.82c12.62-12.19,18.26-27.14,18.68-44.27
		c1.43-58.8,37.3-100.35,90.97-111.89c34.34-7.38,67.69-3.52,98.02,16.01c3.88,2.5,7.36,5.6,11.07,8.36
		c2.64,1.97,2.87,3.58,0.25,6.07c-9.31,8.81-16.59,19.15-21.85,30.86c-1.59,3.55-2.95,2.83-5.24,0.49
		c-23.99-24.49-61.63-26.5-87.85-10.91c-20.4,12.14-30.79,30.77-31.73,54.41c-1.35,33.66-11.31,63.37-38.34,85.4
		c-17.92,14.61-38.72,22.5-61.46,25.47c-24.48,3.19-49.1,1.2-73.65,1.61c-14.78,0.25-29.57-0.19-44.34,0.17
		c-4.78,0.11-5.57-1.42-5.53-5.78C122.38,196.33,122.26,171.92,122.26,147.52z"/>
	<path class="st1" d="M122.13,27.06c0-5.5,0.15-11.01-0.05-16.5c-0.14-3.84,1.72-5.49,5.21-5.34c35.21,1.47,70.44-0.1,105.66,0.77
		c23.98,0.6,46.18,7.26,66.27,20.57c5.27,3.49,5.34,3.8,1.51,8.44c-8.12,9.85-14.48,20.73-19.26,32.56
		c-2.07,5.12-2.56,5.27-6.4,1.25c-13.66-14.28-30.96-20.17-50.08-20.46c-31.97-0.48-63.94-0.14-95.91-0.11
		c-6.9,0.01-6.91,0.08-6.91-6.75c-0.01-4.81,0-9.62,0-14.44C122.15,27.06,122.14,27.06,122.13,27.06z"/>
	<path class="st2" d="M409.66,233.9c-10.67,0.78-26.78-2.01-42.44-7.37c-12.07-4.13-23.02-10.4-33.07-18.24
		c-2.14-1.67-3.23-3.26-0.63-5.77c9.37-9.05,15.69-20.15,20.91-31.95c0.42-0.94,0.91-1.85,1.32-2.8c1.33-3.12,2.72-3.95,5.49-1.02
		c7.11,7.53,15.25,13.7,25.02,17.48c16.01,6.18,32.29,7.28,48.84,2.49c12.84-3.72,23.63-10.75,32.49-20.71
		c2.05-2.31,3.5-2.36,4.99,0.44c6.01,11.3,13.57,21.39,23.4,29.69c3.67,3.1,1.09,5.38-1.13,7.46c-8.96,8.39-19.15,14.92-30.34,19.96
		C448.95,230.56,432.52,233.27,409.66,233.9z"/>
	<path class="st3" d="M490.45,343.71c-5.19-4.61-10.3-9.11-15.36-13.66c-9.96-8.95-19.87-17.94-29.85-26.86
		c-0.94-0.84-1.74-2.53-3.34-1.81c-1.56,0.71-0.9,2.42-0.9,3.68c0.02,10.65,0.03,21.3,0.26,31.95c0.07,3.29-0.85,4.41-4.32,4.4
		c-9.91-0.04-9.9,0.13-9.9-9.6c0-20.1-0.01-40.2,0.02-60.31c0-1.32-0.67-3.13,0.67-3.84c1.77-0.94,2.68,1.1,3.69,2.03
		c13.57,12.63,27.06,25.36,40.58,38.04c1.33,1.25,2.75,2.41,5.15,4.51c0-9.83,0.01-18.48-0.01-27.13
		c-0.01-4.12,0.06-8.25-0.17-12.36c-0.17-3,1.01-3.72,3.87-3.8c10.61-0.27,10.61-0.38,10.62,10.36c0,19.59,0,39.17-0.02,58.76
		C491.42,339.77,491.84,341.53,490.45,343.71z"/>
	<path class="st4" d="M3.32,304.82c0-10.47,0.11-20.94-0.06-31.4c-0.05-3.26,0.72-4.65,4.26-4.46c9.22,0.49,18.5-0.68,27.7,0.92
		c18.55,3.24,30.54,19.89,28.82,40.11c-1.52,17.9-16.27,31.27-34.6,31.33c-7.38,0.03-14.76-0.14-22.14,0.07
		c-3.23,0.09-4.09-1.05-4.04-4.15C3.42,326.44,3.32,315.63,3.32,304.82z M17.35,304.77c0,4.62,0,9.25,0,13.87
		c0,9.57,0,9.71,9.79,9.43c8.71-0.24,16.4-3.04,20.04-11.65c3.96-9.38,3.71-18.75-2.92-27.11c-6.59-8.31-15.97-7.27-25.04-7.03
		c-2.4,0.06-1.83,2.06-1.84,3.47C17.32,292.1,17.35,298.44,17.35,304.77z"/>
	<path class="st4" d="M509.03,305.44c0-10.64,0.11-21.27-0.06-31.91c-0.06-3.57,1.12-4.81,4.74-4.58
		c8.87,0.56,17.79-0.63,26.66,0.88c19.28,3.28,31.1,19.55,29.33,40.6c-1.49,17.65-16.43,30.86-34.98,30.89
		c-7.21,0.02-14.42-0.1-21.62,0.05c-3.03,0.07-4.18-0.73-4.11-4.04c0.23-10.63,0.08-21.27,0.08-31.91
		C509.07,305.44,509.05,305.44,509.03,305.44z M523.05,305.15c0,4.45,0,8.91,0,13.36c0,9.7,0,9.83,9.63,9.58
		c8.92-0.23,16.8-3.09,20.37-11.97c3.77-9.39,3.54-18.84-3.34-27.06c-5.1-6.09-18.06-9.32-25.17-6.78
		c-1.93,0.69-1.44,2.09-1.45,3.33C523.02,292.13,523.05,298.64,523.05,305.15z"/>
	<path class="st3" d="M74.62,305.13c0.06-19.94,16.44-36.16,36.47-36.12c19.69,0.04,36.58,16.86,36.52,36.38
		c-0.06,19.86-16.79,35.99-37.28,35.94C90.65,341.27,74.56,324.97,74.62,305.13z M89.31,305.27c0.02,12.92,9.57,22.82,22.06,22.88
		c11.98,0.06,21.67-10.14,21.65-22.8c-0.02-12.85-9.77-23.14-21.96-23.15C98.67,282.19,89.29,292.14,89.31,305.27z"/>
	<path class="st5" d="M285.95,269.01c-9.49,10.65-17.93,20.31-26.63,29.73c-2.33,2.52-2.46,4.2-0.36,6.9
		c8.92,11.47,17.63,23.11,26.79,35.18c-5.74,0.98-10.85,0.33-15.91,0.51c-2.32,0.08-3.17-1.81-4.25-3.29
		c-5.66-7.74-11.24-15.55-16.95-23.26c-0.81-1.09-1.19-3.35-3.15-2.68c-2.14,0.73-2.91,2.75-2.91,4.99
		c0.01,6.35-0.16,12.71,0.1,19.05c0.15,3.77-0.55,5.48-4.97,5.32c-9.44-0.32-9.45-0.05-9.45-9.56c-0.01-19.23,0.09-38.46-0.08-57.69
		c-0.03-3.86,0.74-5.44,5.04-5.31c9.37,0.28,9.38,0.03,9.38,9.62c0,4.46-0.02,8.93,0.02,13.39c0.01,1.15-0.36,2.61,0.93,3.22
		c1.68,0.8,2.41-0.83,3.24-1.79c5.82-6.76,11.72-13.46,17.31-20.4c2.37-2.94,4.86-4.36,8.72-4.01
		C276.71,269.29,280.67,269.01,285.95,269.01z"/>
	<path class="st4" d="M603.87,269.01c6.89-0.29,13.11,1.9,19.15,4.96c2.9,1.46,3.73,3.14,1.71,5.94c-0.79,1.09-1.3,2.4-1.78,3.67
		c-1.15,3.07-2.78,3.59-5.75,1.91c-4.38-2.47-9.21-3.73-14.32-3.23c-3.46,0.34-6.45,1.75-7.44,5.33c-1.04,3.73,1.19,6.1,4.12,8.03
		c3.76,2.48,8.04,3.8,12.1,5.62c10.58,4.74,15.41,12.18,14.08,21.93c-1.31,9.69-8.67,16.68-19.66,17.98
		c-9.09,1.07-17.66-1.01-25.73-5.4c-2.9-1.58-3.67-3.31-1.6-6.03c0.51-0.68,1.05-1.4,1.32-2.18c1.62-4.69,4.07-5.16,8.34-2.63
		c4.6,2.72,9.85,4.01,15.34,2.85c3.58-0.76,6.54-2.51,7.18-6.41c0.62-3.74-1.68-6.25-4.67-7.85c-3.61-1.94-7.45-3.44-11.18-5.15
		c-11.58-5.31-16.38-13.15-14.21-23.2C583.15,274.62,591.14,269.01,603.87,269.01z"/>
	<path class="st3" d="M382.76,265.83c3.44,7.95,6.44,14.81,9.39,21.69c7.08,16.49,14.06,33.03,21.29,49.46
		c1.46,3.31,1.48,4.4-2.61,4.42c-11.74,0.06-11.87,0.26-15.99-10.89c-1.16-3.14-2.77-4.3-6.01-4.02c-2.9,0.25-5.83,0.06-8.75,0.06
		c-10.53,0-10.89-0.12-14.23,9.89c-1.41,4.23-3.42,5.08-7.37,4.96c-8.52-0.26-8.5-0.06-5.07-8.09
		c8.95-20.93,17.88-41.87,26.84-62.79C380.79,269.28,381.53,268.12,382.76,265.83z M381.43,315.1c0,0.01,0,0.02,0,0.02
		c0.68,0,1.38-0.07,2.05,0.01c4.52,0.57,5.34-1.11,3.35-5.04c-1.38-2.73-2.28-5.7-3.41-8.55c-0.3-0.76-0.33-1.81-1.35-1.94
		c-1-0.13-1.5,0.69-1.83,1.5c-1.56,3.78-3.05,7.59-4.63,11.37c-0.76,1.82-0.1,2.58,1.71,2.63
		C378.69,315.12,380.06,315.1,381.43,315.1z"/>
	<path class="st4" d="M156.48,305.32c0.25-29.54,26.62-43.99,53.07-32.41c2.55,1.11,3.89,2.46,2.22,5.44
		c-1.5,2.66-1.83,6.49-3.96,8.17c-2.77,2.18-5.16-1.8-7.83-2.78c-13.45-4.96-27.52,4.13-28.43,18.57
		c-0.85,13.53,4.67,22.4,16.04,25.28c6.46,1.63,12.73,0.47,18.23-3.18c2.62-1.74,3.45-0.84,4.59,1.32
		c5.04,9.54,4.4,11.03-6.19,13.96c-22.34,6.19-41.77-4.65-46.8-26.21C156.8,310.83,156.78,308.05,156.48,305.32z"/>
	<path class="st6" d="M297.25,305.1c0-10.66,0.09-21.31-0.05-31.97c-0.04-3.06,0.81-4.16,4.06-4.19c10.02-0.1,10.01-0.25,10,9.93
		c-0.01,14.78,0.18,29.56-0.11,44.34c-0.08,4.27,1.38,5.12,5.22,5c7.9-0.25,15.82,0.08,23.72-0.15c3.65-0.11,5.29,0.67,5.08,4.78
		c-0.51,10.05,1.17,8.37-8.51,8.46c-11.69,0.1-23.38-0.08-35.06,0.09c-3.32,0.05-4.46-0.86-4.39-4.32
		c0.21-10.65,0.08-21.31,0.08-31.97C297.27,305.1,297.26,305.1,297.25,305.1z"/>
	<path class="st7" d="M17.35,304.77c0-6.34-0.03-12.67,0.03-19.01c0.01-1.41-0.56-3.41,1.84-3.47c9.06-0.24,18.45-1.28,25.04,7.03
		c6.63,8.36,6.88,17.74,2.92,27.11c-3.63,8.6-11.32,11.4-20.04,11.65c-9.79,0.27-9.79,0.14-9.79-9.43
		C17.35,314.02,17.35,309.4,17.35,304.77z"/>
	<path class="st7" d="M523.05,305.15c0-6.51-0.03-13.02,0.03-19.53c0.01-1.24-0.48-2.64,1.45-3.33c7.11-2.54,20.07,0.68,25.17,6.78
		c6.88,8.22,7.11,17.66,3.34,27.06c-3.56,8.88-11.45,11.74-20.37,11.97c-9.62,0.25-9.63,0.12-9.63-9.58
		C523.05,314.06,523.05,309.6,523.05,305.15z"/>
	<path class="st8" d="M89.31,305.27c-0.02-13.13,9.36-23.08,21.75-23.07c12.18,0.01,21.94,10.3,21.96,23.15
		c0.02,12.66-9.66,22.85-21.65,22.8C98.88,328.09,89.33,318.19,89.31,305.27z"/>
	<path class="st9" d="M381.43,315.1c-1.37,0-2.74,0.03-4.11-0.01c-1.81-0.05-2.47-0.81-1.71-2.63c1.58-3.77,3.08-7.58,4.63-11.37
		c0.33-0.81,0.84-1.63,1.83-1.5c1.02,0.13,1.05,1.19,1.35,1.94c1.12,2.86,2.03,5.83,3.41,8.55c1.99,3.94,1.17,5.61-3.35,5.04
		c-0.67-0.08-1.37-0.01-2.05-0.01C381.43,315.11,381.43,315.1,381.43,315.1z"/>
</g>
</svg>
